# xmcd CD database file
#
# Track frame offsets:
#	150
#	20147
#	42727
#	63480
#	82274
#	105118
#	125351
#	146888
#	171473
#	199714
#	220841
#	243332
#	270982
#	288090
#	308663
#
# Disc length: 4433 seconds
#
# Revision: 0
# Processed by: cddbd v1.5.2PL0 Copyright (c) Steve Scherf et al.
# Submitted via: CDex 1.70beta3
#
DISCID=de114f0f
DTITLE=チェッカーズ - COMPLETE THE CHECKERS all singles collection [Disc 2]
DYEAR=1900
DGENRE=ロック
TTITLE0=ONE NIGHT GIGOLO
TTITLE1=Jim and Janeの伝説
TTITLE2=素直にI'm Sorry
TTITLE3=Room
TTITLE4=Cherie
TTITLE5=Friends and Dream
TTITLE6=運命 (SADAME)
TTITLE7=夜明けのブレス
TTITLE8=さよならをもう一度
TTITLE9=Love'91
TTITLE10=ミセス マーメイド
TTITLE11=ふれてごらん ～Please touch your heart～
TTITLE12=今夜は最高
TTITLE13=Blue Moon Stone
TTITLE14=Present for you
EXTD=
EXTT0=
EXTT1=
EXTT2=
EXTT3=
EXTT4=
EXTT5=
EXTT6=
EXTT7=
EXTT8=
EXTT9=
EXTT10=
EXTT11=
EXTT12=
EXTT13=
EXTT14=
PLAYORDER=
